<svg xmlns="http://www.w3.org/2000/svg" viewBox="-490.138 -1026.9 2069 1795">
	<path d="m 1071.5842,-1019.5242
c -102.00004,21.00003 -220.00004,121.00003 -282.00004,239.00003 -41,78 -83,230 -86,315 -3,81 13,187 44,295 11,40 19,76.000003 16,78.000003 -2,3 -22,-15.000003 -44,-39.000003 -43,-46 -117,-91 -170,-102 -32,-8 -54,-17 -141,-59 -24,-12 -67,-45 -95,-72 -44,-42 -56,-62 -76,-125 -13,-41 -30,-88 -39,-103 -10,-18 -12,-30 -6,-35 6,-4 19,-20 28,-35 16,-25 17,-42 12,-140 -4,-62 -9,-114 -10,-115 -2,-2 -25,9 -52,24 -56,32 -123.000001,92 -123.000001,111 0,7 -4,13 -10,13 -5,0 -10,-7 -10,-16 0,-19 -56,-154 -74,-179 -15,-21 -7,-30 -69.999999,86 -16,30 -37,81 -46,114 -15,53 -23,64 -67,95 -28,19 -56,42 -64,50 -40,43 -89,111 -116,165 -16,33 -40,79 -52,101 -12,23 -24,60 -27,83 -5,39 -2,44 49,96 62,61 106,83.000003 186,91.000003 92,9 101,12 101,37 0,60 -60,62 -155,6 -39,-23 -82,-42 -97,-42 -37,0 -68,29 -68,66
q -4,40 118,110
v 0
l 58,42.999997
c 31,24 83,70 114,103 32,34 101.999999,89 164.999999,129 82,52 109,75 107,89 -18,120 -17,184 4,228 9.000001,19 21.000001,38 26.000001,41 17,10 21,-5 7,-22 -13,-16 -16,-122 -7,-248
l 3,-39 -100.000001,-61
c -66,-40 -128.999999,-89 -184.999999,-145 -82,-81 -158,-134.999997 -184,-145.999997 -23,-13 -96,-49 -97,-70.0000004 -11,-44.9999996 41,-68.9999996 91,-24.9999996 121,65 136,65 166,60 63,-14 89.999999,-75 51,-118 -17,-18.000003 -31,-22.000003 -81,-22.000003 -89,0 -191,-54 -226,-120 -13,-25 -6,-105 11,-116 5,-3 26,-39 46,-79 46,-95 121,-186 186,-229 48,-30 54,-38 65,-86 12,-53 34,-106 59.999999,-148
l 15,-23 21,38
c 29,51 46,113 39.00000003,144 -4.00000003,21 0,27 18.99999997,32 35,10 38,9 38,-16 0,-40 30,-87 79.000001,-122 25,-19 49,-31 53,-27 4,4 8,47 10,95
l 3,89 -32,29 -33,28 25,37
c 14,20 30,55 35,78 37,144 123,222 325,296 33,12 69,27 80,33 11,6 31,16 46,24 32,16 63,49 109,116.000003 60,87 71,76 43,-45 -13,-57.000003 -32,-141.000003 -43,-188.000003 -11,-47 -20,-119 -20,-160 0,-73 21,-205 40,-245 5,-11 17,-38 26,-60 39,-88 114,-176 189,-219 23.00004,-14 71.00004,-30 108.00004,-36 130,-23.00003 248,36 333,168 152,235 150,510 -4,735.000003 -33,46 -121,132 -128,124 -3,-3 -6,-47.0000004 -8,-99 -2,-116.000003 -29,-182.000003 -83,-205.000003 -49,-20 -83,-6 -108,43 -19,36 -20,59 -21,334 0,274 -6,370 -24,395 -4,5 -12,26 -19,45 -18,55 -35,90 -43.00004,90 -5,0 -8,5 -8,11 0,6 -19,33 -41,61 -23,27 -39,52 -35,55 3,3 25,-12 50,-33 66.00004,-59 140.00004,-224 152.00004,-339 3,-28 4,-193 2,-444.999997 0,-58.000003 4,-124.000003 11,-148.000003 11,-39 14,-42 46,-42 66,0 90,60 88,222.000003 0,86 2,98 16,98 31,0 109,-58 156,-117 53,-66.000003 123,-207.000003 130,-261.000003 3,-20 7,-51 10,-67 21,-118 -9,-281 -75,-414 -94,-185 -256,-276.00003 -426,-241.00003
z" fill="#d94515"/>
</svg>