<svg xmlns="http://www.w3.org/2000/svg" viewBox="0 0 605 392">
	<path d="M 1.5 388.5 h 60 v -104 h -60 Z M 66.5 337.5 l 190 -56 v 44 h 344 v 22 h -344 v 45 Z M 543.5 5.5 h 60 v 104 h -60 Z M 538.5 56.5 l -190 -56 v 44.5 h -344 v 22 h 344 v 44.5 Z M 605 174 q 0 1.5 -1.5 1.5 h -37 q -1 0 -1 -1 v -22 q 0 -2 -1.5 -2 h -56.5 q -2 0 -2 1.5 v 22.5 l 99.5 27 v 34.5 q 0 35.5 -31 35.5 h -77 q -30.5 0 -30.5 -31.5 v -23.5 h 39 v 27 h 60 v -26.5 l -99 -28 v -60 q 0 -6.5 8.5 -6.5 h 117 q 13 0 13 23.5 Z M 310.5 122.5 h 108.5 q 32.5 0 32.5 24.5 v 31 q 0 18.5 -20.5 18.5 q 20.5 0 20.5 19.5 v 31 q 0 24.5 -30.5 24.5 h -110.5 v -149 z m 40 25 v 97 h 61 v -35 h -45 v -27 h 45 v -35 h -61 Z M 154.5 271.5 v -136.5 q 0 -12.5 13.5 -12.5 h 115 q 13.5 0 13.5 12.5 v 136.5 h -40 v -61 h -62 v 61 z m 40 -87 h 62 v -31.5 q 0 -3.5 -5.5 -3.5 h -51 q -5.5 0 -5.5 3.5 Z M 74.5 271.5 h -22.5 q -14.5 0 -14.5 -6.5 v -114 q 0 -1.5 -1.5 -1.5 h -34 q -2 0 -2 -1.5 v -24 q 0 -1.5 2 -1.5 h 142.5 v 27 h -70 Z" fill="#ffffff"/>
</svg>